<?xml version="1.0" encoding="utf-8"?>
<!-- Created with "sPlan" (http://www.abacom-online.de) -->
<svg version="1.1" baseProfile="full"
xmlns="http://www.w3.org/2000/svg"
width="220" height="234">
<title>test</title>
<defs>
<style type="text/css">
<![CDATA[
polyline {stroke-linecap:round; stroke-linejoin:round}
polygon {stroke-linecap:round; stroke-linejoin:round}
path {stroke-linecap:round; stroke-linejoin:round}
circle {stroke-linecap:round; stroke-linejoin:round}
]]>
</style>
</defs>
<circle cx="110.00" cy="116.00" r="50.00" fill="rgb(255,255,255)" stroke="rgb(0,0,0)" stroke-width="2" />
<polyline points="90.00 46.00 90.00 86.00" fill="none" stroke="rgb(0,0,0)" stroke-width="2" />
<polyline points="80.00 86.00 100.00 86.00" fill="none" stroke="rgb(0,0,0)" stroke-width="4" />
<polyline points="90.00 156.00 90.00 186.00" fill="none" stroke="rgb(0,0,0)" stroke-width="2" />
<polyline points="130.00 156.00 130.00 186.00" fill="none" stroke="rgb(0,0,0)" stroke-width="2" />
<path fill="none" stroke="rgb(0,0,0)" stroke-width="2" d=" M 129.70 156.00 Q 129.62 155.09 129.05 153.44 Q 128.48 151.80 127.55 150.29 Q 126.63 148.78 125.39 147.45 Q 124.14 146.13 122.63 145.04 Q 121.11 143.95 119.38 143.14 Q 117.65 142.33 115.78 141.83 Q 113.90 141.34 111.95 141.17 Q 110.00 141.00 108.05 141.17 Q 106.10 141.34 104.22 141.83 Q 102.35 142.33 100.62 143.14 Q 98.89 143.95 97.37 145.04 Q 95.86 146.13 94.61 147.45 Q 93.37 148.78 92.45 150.29 Q 91.52 151.80 90.95 153.44 Q 90.38 155.09 90.34 155.54 L 90.30 156.00" />
<polyline points="130.00 46.00 130.00 86.00" fill="none" stroke="rgb(0,0,0)" stroke-width="2" />
<polyline points="120.00 86.00 140.00 86.00" fill="none" stroke="rgb(0,0,0)" stroke-width="4" />
<path fill="none" stroke="rgb(0,0,0)" stroke-width="5" d=" M 101.17 129.37 Q 98.11 130.22 95.23 131.57 Q 92.35 132.92 89.82 134.73 Q 87.30 136.54 85.22 138.75 Q 83.15 140.96 81.61 143.48 Q 80.07 146.01 79.12 148.74 Q 78.17 151.48 78.07 152.22 L 77.97 152.97" />
<polyline points="78.00 156.00 78.00 186.00" fill="none" stroke="rgb(0,0,0)" stroke-width="2" />
<polyline points="144.00 156.00 144.00 186.00" fill="none" stroke="rgb(0,0,0)" stroke-width="2" />
<path fill="none" stroke="rgb(0,0,0)" stroke-width="5" d=" M 143.20 153.00 Q 142.99 151.51 142.04 148.77 Q 141.10 146.04 139.56 143.52 Q 138.02 141.00 135.94 138.79 Q 133.87 136.58 131.34 134.76 Q 128.82 132.95 125.94 131.60 Q 123.06 130.25 121.03 129.73 L 119.00 129.20" />
<polyline points="110.00 126.00 110.00 66.00" fill="none" stroke="rgb(0,0,0)" stroke-width="1" stroke-dasharray="2,4" />
<polyline points="110.00 46.00 110.00 66.00" fill="none" stroke="rgb(0,0,0)" stroke-width="2" />
<polyline points="100.00 116.00 60.00 116.00" fill="none" stroke="rgb(0,0,0)" stroke-width="2" stroke-dasharray="16,10" />
<polyline points="60.00 116.00 40.00 116.00" fill="none" stroke="rgb(0,0,0)" stroke-width="2" />
<polyline points="160.00 116.00 120.00 116.00" fill="none" stroke="rgb(0,0,0)" stroke-width="2" stroke-dasharray="16,10" />
<polyline points="180.00 116.00 160.00 116.00" fill="none" stroke="rgb(0,0,0)" stroke-width="2" />
<text x="70.00" y="70.00" font-family ="Arial" font-size ="21pt" font-weight="normal" font-style="normal" fill="rgb(0,0,0)" transform=" rotate(0.000) scale(1.000,1.000)">${p1}</text>
<text x="40.00" y="110.00" font-family ="Arial" font-size ="21pt" font-weight="normal" font-style="normal" fill="rgb(0,0,0)" transform=" rotate(0.000) scale(1.000,1.000)">${p2}</text>
<text x="60.00" y="180.00" font-family ="Arial" font-size ="21pt" font-weight="normal" font-style="normal" fill="rgb(0,0,0)" transform=" rotate(0.000) scale(1.000,1.000)">${p3}</text>
<text x="93.00" y="188.00" font-family ="Arial" font-size ="21pt" font-weight="normal" font-style="normal" fill="rgb(0,0,0)" transform=" rotate(0.000) scale(1.000,1.000)">${p4}</text>
<text x="112.00" y="188.00" font-family ="Arial" font-size ="21pt" font-weight="normal" font-style="normal" fill="rgb(0,0,0)" transform=" rotate(0.000) scale(1.000,1.000)">${p5}</text>
<text x="135.00" y="70.00" font-family ="Arial" font-size ="21pt" font-weight="normal" font-style="normal" fill="rgb(0,0,0)" transform=" rotate(0.000) scale(1.000,1.000)">${p6}</text>
<text x="160.00" y="110.00" font-family ="Arial" font-size ="21pt" font-weight="normal" font-style="normal" fill="rgb(0,0,0)" transform=" rotate(0.000) scale(1.000,1.000)">${p7}</text>
<text x="150.00" y="180.00" font-family ="Arial" font-size ="21pt" font-weight="normal" font-style="normal" fill="rgb(0,0,0)" transform=" rotate(0.000) scale(1.000,1.000)">${p8}</text>
<text x="112.00" y="64.00" font-family ="Arial" font-size ="21pt" font-weight="normal" font-style="normal" fill="rgb(0,0,0)" transform=" rotate(0.000) scale(1.000,1.000)">${p9}</text>
</svg>
