<?xml version="1.0" encoding="utf-8"?>
<!-- Created with "sPlan" (http://www.abacom-online.de) -->
<svg version="1.1" xmlns="http://www.w3.org/2000/svg" width="322" height="235">
<title>ccc</title>
<defs>
<style type="text/css">
<![CDATA[
polyline {stroke-linecap:round; stroke-linejoin:round}
polygon {stroke-linecap:round; stroke-linejoin:round}
path {stroke-linecap:round; stroke-linejoin:round}
circle {stroke-linecap:round; stroke-linejoin:round}
]]>
</style>
</defs>
<circle cx="155.00" cy="115.00" r="50.00" fill="rgb(255,255,255)" stroke="rgb(0,0,0)" stroke-width="2" />
<polyline points="135.00 45.00 135.00 85.00" fill="none" stroke="rgb(0,0,0)" stroke-width="2" />
<polyline points="120.00 85.00 150.00 85.00" fill="none" stroke="rgb(0,0,0)" stroke-width="4" />
<polyline points="85.00 115.00 115.00 115.00" fill="none" stroke="rgb(0,0,0)" stroke-width="2" />
<polyline points="120.00 115.00 130.00 115.00" fill="none" stroke="rgb(0,0,0)" stroke-width="2" />
<polyline points="135.00 115.00 145.00 115.00" fill="none" stroke="rgb(0,0,0)" stroke-width="2" />
<polyline points="165.00 115.00 175.00 115.00" fill="none" stroke="rgb(0,0,0)" stroke-width="2" />
<polyline points="180.00 115.00 190.00 115.00" fill="none" stroke="rgb(0,0,0)" stroke-width="2" />
<polyline points="135.00 155.00 135.00 185.00" fill="none" stroke="rgb(0,0,0)" stroke-width="2" />
<polyline points="175.00 155.00 175.00 185.00" fill="none" stroke="rgb(0,0,0)" stroke-width="2" />
<path fill="none" stroke="rgb(0,0,0)" stroke-width="2" d=" M 174.70 155.00 Q 174.62 154.09 174.05 152.44 Q 173.48 150.80 172.55 149.29 Q 171.63 147.78 170.39 146.45 Q 169.14 145.13 167.63 144.04 Q 166.11 142.95 164.38 142.14 Q 162.65 141.33 160.78 140.83 Q 158.90 140.34 156.95 140.17 Q 155.00 140.00 153.05 140.17 Q 151.10 140.34 149.22 140.83 Q 147.35 141.33 145.62 142.14 Q 143.89 142.95 142.37 144.04 Q 140.86 145.13 139.61 146.45 Q 138.37 147.78 137.45 149.29 Q 136.52 150.80 135.95 152.44 Q 135.38 154.09 135.34 154.54 L 135.30 155.00" />
<path fill="none" stroke="rgb(0,0,0)" stroke-width="4" d=" M 185.60 144.40 Q 185.41 143.11 184.55 141.00 Q 183.68 138.89 182.27 136.94 Q 180.86 135.00 178.96 133.29 Q 177.07 131.59 174.76 130.19 Q 172.44 128.79 169.81 127.75 Q 167.17 126.71 164.31 126.07 Q 161.45 125.43 158.48 125.22 Q 155.50 125.00 152.52 125.22 Q 149.55 125.43 146.69 126.07 Q 143.83 126.71 141.19 127.75 Q 138.56 128.79 136.24 130.19 Q 133.93 131.59 132.04 133.29 Q 130.14 135.00 128.73 136.94 Q 127.32 138.89 126.45 141.00 Q 125.59 143.11 125.49 143.76 L 125.40 144.40" />
<polyline points="175.00 45.00 175.00 85.00" fill="none" stroke="rgb(0,0,0)" stroke-width="2" />
<polyline points="160.00 85.00 190.00 85.00" fill="none" stroke="rgb(0,0,0)" stroke-width="4" />
<polyline points="195.00 115.00 225.00 115.00" fill="none" stroke="rgb(0,0,0)" stroke-width="2" />
<text x="100.00" y="64.00" font-family ="Arial" font-size ="21pt" font-weight="normal" font-style="normal" fill="rgb(0,0,0)" transform=" rotate(0.000) scale(1.000,1.000)">${p1}</text>
<text x="70.00" y="104.00" font-family ="Arial" font-size ="21pt" font-weight="normal" font-style="normal" fill="rgb(0,0,0)" transform=" rotate(0.000) scale(1.000,1.000)">${p2}</text>
<text x="100.00" y="184.00" font-family ="Arial" font-size ="21pt" font-weight="normal" font-style="normal" fill="rgb(0,0,0)" transform=" rotate(0.000) scale(1.000,1.000)">${p3}</text>
<text x="180.00" y="189.00" font-family ="Arial" font-size ="21pt" font-weight="normal" font-style="normal" fill="rgb(0,0,0)" transform=" rotate(0.000) scale(1.000,1.000)">${p4}</text>
<polyline points="185.60 144.40 215.60 144.40" fill="none" stroke="rgb(0,0,0)" stroke-width="2" />
<text x="220.00" y="154.00" font-family ="Arial" font-size ="21pt" font-weight="normal" font-style="normal" fill="rgb(0,0,0)" transform=" rotate(0.000) scale(1.000,1.000)">${p5}</text>
<text x="205.00" y="104.00" font-family ="Arial" font-size ="21pt" font-weight="normal" font-style="normal" fill="rgb(0,0,0)" transform=" rotate(0.000) scale(1.000,1.000)">${p6}</text>
<text x="180.00" y="64.00" font-family ="Arial" font-size ="21pt" font-weight="normal" font-style="normal" fill="rgb(0,0,0)" transform=" rotate(0.000) scale(1.000,1.000)">${p7}</text>
</svg>
