<?xml version="1.0" encoding="utf-8"?>
<!-- Created with "sPlan" (http://www.abacom-online.de) -->
<svg version="1.1" baseProfile="full"
xmlns="http://www.w3.org/2000/svg"
width="295" height="280">
<title>special</title>
<defs>
<style type="text/css">
<![CDATA[
polyline {stroke-linecap:round; stroke-linejoin:round}
polygon {stroke-linecap:round; stroke-linejoin:round}
path {stroke-linecap:round; stroke-linejoin:round}
circle {stroke-linecap:round; stroke-linejoin:round}
]]>
</style>
</defs>
<path fill="rgb(255,255,255)" stroke="rgb(0,0,0)" stroke-width="3" d=" M 90 115 C 90 65 140 65 140 65 L 140 65 L 140 65 C 190 65 190 115 190 115 L 190 165 L 190 165 C 190 215 140 215 140 215 L 140 215 L 140 215 C 90 215 90 165 90 165 L 90 115 Z" />
<polyline points="110.00 90.00 130.00 90.00" fill="none" stroke="rgb(0,0,0)" stroke-width="4" />
<polyline points="120.00 90.00 120.00 40.00" fill="none" stroke="rgb(0,0,0)" stroke-width="2" />
<polyline points="90.00 155.00 60.00 155.00" fill="none" stroke="rgb(0,0,0)" stroke-width="2" />
<polyline points="90.00 155.00 101.25 155.00" fill="none" stroke="rgb(0,0,0)" stroke-width="3" />
<polyline points="107.25 155.00 117.75 155.00" fill="none" stroke="rgb(0,0,0)" stroke-width="3" />
<polyline points="123.75 155.00 135.00 155.00" fill="none" stroke="rgb(0,0,0)" stroke-width="3" />
<polyline points="150.00 80.00 170.00 105.00" fill="none" stroke="rgb(0,0,0)" stroke-width="4" />
<polyline points="160.00 90.00 160.00 40.00" fill="none" stroke="rgb(0,0,0)" stroke-width="2" />
<polyline points="145.00 135.00 156.25 135.00" fill="none" stroke="rgb(0,0,0)" stroke-width="3" />
<polyline points="162.25 135.00 172.75 135.00" fill="none" stroke="rgb(0,0,0)" stroke-width="3" />
<polyline points="178.75 135.00 190.00 135.00" fill="none" stroke="rgb(0,0,0)" stroke-width="3" />
<polyline points="120.00 80.00 140.00 80.00 140.00 135.00 145.00 135.00" fill="none" stroke="rgb(0,0,0)" stroke-width="1" />
<path fill="none" stroke="rgb(0,0,0)" stroke-width="2" d=" M 155.00 212.50 Q 155.00 212.50 154.83 210.79 Q 154.66 209.09 154.17 207.44 Q 153.67 205.80 152.86 204.29 Q 152.05 202.78 150.96 201.45 Q 149.87 200.13 148.55 199.04 Q 147.22 197.95 145.71 197.14 Q 144.20 196.33 142.56 195.83 Q 140.91 195.34 139.21 195.17 Q 137.50 195.00 135.79 195.17 Q 134.09 195.34 132.44 195.83 Q 130.80 196.33 129.29 197.14 Q 127.78 197.95 126.45 199.04 Q 125.13 200.13 124.04 201.45 Q 122.95 202.78 122.14 204.29 Q 121.33 205.80 120.83 207.44 Q 120.34 209.09 120.17 210.79 Q 120.00 212.50 120.10 213.75 L 120.20 215.00" />
<polyline points="120.00 240.00 120.00 210.00" fill="none" stroke="rgb(0,0,0)" stroke-width="2" />
<polyline points="155.00 240.00 155.00 210.00" fill="none" stroke="rgb(0,0,0)" stroke-width="2" />
<path fill="none" stroke="rgb(0,0,0)" stroke-width="5" d=" M 170.10 205.00 Q 170.19 204.20 169.88 201.35 Q 169.56 198.51 168.63 195.77 Q 167.71 193.04 166.20 190.52 Q 164.70 188.00 162.67 185.79 Q 160.64 183.58 158.17 181.76 Q 155.71 179.95 152.89 178.60 Q 150.07 177.25 147.01 176.42 Q 143.96 175.59 140.78 175.31 Q 137.60 175.03 134.42 175.31 Q 131.24 175.59 128.19 176.42 Q 125.13 177.25 122.31 178.60 Q 119.49 179.95 117.03 181.76 Q 114.56 183.58 112.53 185.79 Q 110.50 188.00 109.00 190.52 Q 107.49 193.04 106.57 195.77 Q 105.64 198.51 105.57 199.25 L 105.50 200.00" />
<polyline points="170.10 205.00 215.00 205.00" fill="none" stroke="rgb(0,0,0)" stroke-width="2" />
<text x="40.00" y="150.00" font-family ="Arial" font-size ="18pt" font-weight="normal" font-style="normal" fill="rgb(0,0,0)" transform=" rotate(0.000) scale(1.000,1.000)">${p1}</text>
<text x="65.00" y="230.00" font-family ="Arial" font-size ="18pt" font-weight="normal" font-style="normal" fill="rgb(0,0,0)" transform=" rotate(0.000) scale(1.000,1.000)">${p2}</text>
<text x="160.00" y="235.00" font-family ="Arial" font-size ="18pt" font-weight="normal" font-style="normal" fill="rgb(0,0,0)" transform=" rotate(0.000) scale(1.000,1.000)">${p3}</text>
<text x="195.00" y="190.00" font-family ="Arial" font-size ="18pt" font-weight="normal" font-style="normal" fill="rgb(0,0,0)" transform=" rotate(0.000) scale(1.000,1.000)">${p4}</text>
<text x="170.00" y="65.00" font-family ="Arial" font-size ="18pt" font-weight="normal" font-style="normal" fill="rgb(0,0,0)" transform=" rotate(0.000) scale(1.000,1.000)">${p5}</text>
<text x="70.00" y="65.00" font-family ="Arial" font-size ="18pt" font-weight="normal" font-style="normal" fill="rgb(0,0,0)" transform=" rotate(0.000) scale(1.000,1.000)">${p6}</text>
<text x="200.00" y="124.00" font-family ="ARIAL" font-size ="21pt" font-weight="normal" font-style="normal" fill="rgb(0,0,0)" transform=" rotate(0.000) scale(1.000,1.000)">V1</text>
<text x="200.00" y="169.00" font-family ="ARIAL" font-size ="17pt" font-weight="normal" font-style="normal" fill="rgb(0,0,0)" transform=" rotate(0.000) scale(1.000,1.000)">EL 84</text>
</svg>
