<?xml version="1.0" encoding="utf-8"?>
<!-- Created with "sPlan" (http://www.abacom-online.de) -->
<svg version="1.1" baseProfile="full"
xmlns="http://www.w3.org/2000/svg"
width="277" height="235">
<title>triode</title>
<defs>
<style type="text/css">
<![CDATA[
polyline {stroke-linecap:round; stroke-linejoin:round}
polygon {stroke-linecap:round; stroke-linejoin:round}
path {stroke-linecap:round; stroke-linejoin:round}
circle {stroke-linecap:round; stroke-linejoin:round}
]]>
</style>
</defs>
<circle cx="125.00" cy="120.00" r="50.00" fill="rgb(255,255,255)" stroke="rgb(0,0,0)" stroke-width="3" />
<polyline points="105.00 90.00 145.00 90.00" fill="none" stroke="rgb(0,0,0)" stroke-width="4" />
<polyline points="125.00 90.00 125.00 45.00" fill="none" stroke="rgb(0,0,0)" stroke-width="2" />
<polyline points="141.00 120.00 155.00 120.00" fill="none" stroke="rgb(0,0,0)" stroke-width="3" />
<polyline points="95.00 120.00 109.00 120.00" fill="none" stroke="rgb(0,0,0)" stroke-width="3" />
<polyline points="117.00 120.00 133.00 120.00" fill="none" stroke="rgb(0,0,0)" stroke-width="3" />
<polyline points="91.00 120.00 50.00 120.00" fill="none" stroke="rgb(0,0,0)" stroke-width="2" />
<path fill="none" stroke="rgb(0,0,0)" stroke-width="2" d=" M 145.00 165.00 Q 145.00 165.00 144.81 163.05 Q 144.62 161.10 144.05 159.22 Q 143.48 157.35 142.55 155.62 Q 141.63 153.89 140.39 152.37 Q 139.14 150.86 137.63 149.61 Q 136.11 148.37 134.38 147.45 Q 132.65 146.52 130.78 145.95 Q 128.90 145.38 126.95 145.19 Q 125.00 145.00 123.05 145.19 Q 121.10 145.38 119.22 145.95 Q 117.35 146.52 115.62 147.45 Q 113.89 148.37 112.37 149.61 Q 110.86 150.86 109.61 152.37 Q 108.37 153.89 107.45 155.62 Q 106.52 157.35 105.95 159.22 Q 105.38 161.10 105.19 163.05 Q 105.00 165.00 105.00 165.00 L 105.00 165.00" />
<polyline points="145.00 165.00 145.00 195.00" fill="none" stroke="rgb(0,0,0)" stroke-width="2" />
<polyline points="105.00 165.00 105.00 195.00" fill="none" stroke="rgb(0,0,0)" stroke-width="2" />
<path fill="none" stroke="rgb(0,0,0)" stroke-width="5" d=" M 155.00 160.00 Q 155.00 160.00 154.71 157.56 Q 154.42 155.12 153.57 152.78 Q 152.72 150.43 151.33 148.27 Q 149.94 146.11 148.08 144.22 Q 146.21 142.32 143.94 140.77 Q 141.67 139.21 139.07 138.06 Q 136.48 136.90 133.67 136.19 Q 130.85 135.48 127.93 135.24 Q 125.00 135.00 122.07 135.24 Q 119.15 135.48 116.33 136.19 Q 113.52 136.90 110.93 138.06 Q 108.33 139.21 106.06 140.77 Q 103.79 142.32 101.92 144.22 Q 100.06 146.11 98.67 148.27 Q 97.28 150.43 96.43 152.78 Q 95.58 155.12 95.29 157.56 Q 95.00 160.00 95.00 160.00 L 95.00 160.00" />
<polyline points="155.00 160.00 200.00 160.00" fill="none" stroke="rgb(0,0,0)" stroke-width="2" />
<text x="40.00" y="114.00" font-family ="Arial" font-size ="21pt" font-weight="normal" font-style="normal" fill="rgb(0,0,0)" transform=" rotate(0.000) scale(1.000,1.000)">${p1}</text>
<text x="50.00" y="189.00" font-family ="Arial" font-size ="21pt" font-weight="normal" font-style="normal" fill="rgb(0,0,0)" transform=" rotate(0.000) scale(1.000,1.000)">${p2}</text>
<text x="145.00" y="189.00" font-family ="Arial" font-size ="21pt" font-weight="normal" font-style="normal" fill="rgb(0,0,0)" transform=" rotate(0.000) scale(1.000,1.000)">${p3}</text>
<text x="175.00" y="149.00" font-family ="Arial" font-size ="21pt" font-weight="normal" font-style="normal" fill="rgb(0,0,0)" transform=" rotate(0.000) scale(1.000,1.000)">${p4}</text>
<text x="130.00" y="64.00" font-family ="Arial" font-size ="21pt" font-weight="normal" font-style="normal" fill="rgb(0,0,0)" transform=" rotate(0.000) scale(1.000,1.000)">${p5}</text>
</svg>
