<?xml version="1.0" encoding="utf-8"?>
<!-- Created with "sPlan" (http://www.abacom-online.de) -->
<svg version="1.1" baseProfile="full"
xmlns="http://www.w3.org/2000/svg"
width="312" height="300">
<title>zzz</title>
<defs>
<style type="text/css">
<![CDATA[
polyline {stroke-linecap:round; stroke-linejoin:round}
polygon {stroke-linecap:round; stroke-linejoin:round}
path {stroke-linecap:round; stroke-linejoin:round}
circle {stroke-linecap:round; stroke-linejoin:round}
]]>
</style>
</defs>
<path fill="rgb(255,255,255)" stroke="rgb(0,0,0)" stroke-width="3" d=" M 105 115 C 105 65 155 65 155 65 L 155 65 L 155 65 C 205 65 205 115 205 115 L 205 165 L 205 165 C 205 215 155 215 155 215 L 155 215 L 155 215 C 105 215 105 165 105 165 L 105 115 Z" />
<polyline points="120.00 90.00 150.00 90.00" fill="none" stroke="rgb(0,0,0)" stroke-width="4" />
<polyline points="135.00 90.00 135.00 50.00" fill="none" stroke="rgb(0,0,0)" stroke-width="2" />
<polyline points="105.00 115.00 116.25 115.00" fill="none" stroke="rgb(0,0,0)" stroke-width="3" />
<polyline points="122.25 115.00 132.75 115.00" fill="none" stroke="rgb(0,0,0)" stroke-width="3" />
<polyline points="138.75 115.00 150.00 115.00" fill="none" stroke="rgb(0,0,0)" stroke-width="3" />
<polyline points="101.39 165.00 86.00 165.00" fill="none" stroke="rgb(0,0,0)" stroke-width="2" />
<polyline points="101.39 165.00 113.54 165.00" fill="none" stroke="rgb(0,0,0)" stroke-width="3" />
<polyline points="120.03 165.00 131.37 165.00" fill="none" stroke="rgb(0,0,0)" stroke-width="3" />
<polyline points="137.85 165.00 150.00 165.00" fill="none" stroke="rgb(0,0,0)" stroke-width="3" />
<polyline points="85.00 140.00 101.25 140.00" fill="none" stroke="rgb(0,0,0)" stroke-width="2" />
<polyline points="150.00 140.00 137.81 140.00" fill="none" stroke="rgb(0,0,0)" stroke-width="3" />
<polyline points="131.31 140.00 119.94 140.00" fill="none" stroke="rgb(0,0,0)" stroke-width="3" />
<polyline points="113.44 140.00 101.25 140.00" fill="none" stroke="rgb(0,0,0)" stroke-width="3" />
<polyline points="225.00 140.00 208.75 140.00" fill="none" stroke="rgb(0,0,0)" stroke-width="2" />
<polyline points="160.00 140.00 172.19 140.00" fill="none" stroke="rgb(0,0,0)" stroke-width="3" />
<polyline points="178.69 140.00 190.06 140.00" fill="none" stroke="rgb(0,0,0)" stroke-width="3" />
<polyline points="196.56 140.00 208.75 140.00" fill="none" stroke="rgb(0,0,0)" stroke-width="3" />
<polyline points="160.00 90.00 190.00 90.00" fill="none" stroke="rgb(0,0,0)" stroke-width="4" />
<polyline points="175.00 90.00 175.00 50.00" fill="none" stroke="rgb(0,0,0)" stroke-width="2" />
<path fill="none" stroke="rgb(0,0,0)" stroke-width="2" d=" M 170.00 212.50 Q 170.00 212.50 169.83 210.79 Q 169.66 209.09 169.17 207.44 Q 168.67 205.80 167.86 204.29 Q 167.05 202.78 165.96 201.45 Q 164.87 200.13 163.55 199.04 Q 162.22 197.95 160.71 197.14 Q 159.20 196.33 157.56 195.83 Q 155.91 195.34 154.21 195.17 Q 152.50 195.00 150.79 195.17 Q 149.09 195.34 147.44 195.83 Q 145.80 196.33 144.29 197.14 Q 142.78 197.95 141.45 199.04 Q 140.13 200.13 139.04 201.45 Q 137.95 202.78 137.14 204.29 Q 136.33 205.80 135.83 207.44 Q 135.34 209.09 135.27 209.54 L 135.20 210.00" />
<polyline points="135.20 210.00 135.00 250.00" fill="none" stroke="rgb(0,0,0)" stroke-width="2" />
<polyline points="170.00 212.50 169.80 252.50" fill="none" stroke="rgb(0,0,0)" stroke-width="2" />
<path fill="none" stroke="rgb(0,0,0)" stroke-width="5" d=" M 150.03 175.20 Q 145.19 175.53 141.66 176.31 Q 138.13 177.09 134.88 178.36 Q 131.63 179.63 128.78 181.34 Q 125.93 183.05 123.59 185.14 Q 121.25 187.22 119.51 189.60 Q 117.77 191.98 116.70 194.56 Q 115.63 197.14 115.53 197.87 L 115.43 198.60" />
<path fill="none" stroke="rgb(0,0,0)" stroke-width="5" d=" M 190.13 202.50 Q 190.15 202.50 189.78 199.82 Q 189.42 197.14 188.35 194.56 Q 187.28 191.98 185.54 189.60 Q 183.81 187.22 181.47 185.14 Q 179.13 183.05 176.28 181.34 Q 173.43 179.63 170.18 178.36 Q 166.92 177.09 163.39 176.31 Q 159.87 175.53 159.85 175.51 L 159.83 175.50" />
<polyline points="115.43 198.60 115.43 223.60" fill="none" stroke="rgb(0,0,0)" stroke-width="2" />
<polyline points="190.13 202.50 190.13 227.50" fill="none" stroke="rgb(0,0,0)" stroke-width="2" />
<text x="70.00" y="129.00" font-family ="Arial" font-size ="21pt" font-weight="normal" font-style="normal" fill="rgb(0,0,0)" transform=" rotate(0.000) scale(1.000,1.000)">${p1}</text>
<text x="70.00" y="159.00" font-family ="Arial" font-size ="21pt" font-weight="normal" font-style="normal" fill="rgb(0,0,0)" transform=" rotate(0.000) scale(1.000,1.000)">${p2}</text>
<text x="85.00" y="219.00" font-family ="Arial" font-size ="21pt" font-weight="normal" font-style="normal" fill="rgb(0,0,0)" transform=" rotate(0.000) scale(1.000,1.000)">${p3}</text>
<text x="105.00" y="254.00" font-family ="Arial" font-size ="21pt" font-weight="normal" font-style="normal" fill="rgb(0,0,0)" transform=" rotate(0.000) scale(1.000,1.000)">${p4}</text>
<text x="175.00" y="254.00" font-family ="Arial" font-size ="21pt" font-weight="normal" font-style="normal" fill="rgb(0,0,0)" transform=" rotate(0.000) scale(1.000,1.000)">${p5}</text>
<text x="200.00" y="224.00" font-family ="Arial" font-size ="21pt" font-weight="normal" font-style="normal" fill="rgb(0,0,0)" transform=" rotate(0.000) scale(1.000,1.000)">${p6}</text>
<text x="215.00" y="134.00" font-family ="Arial" font-size ="21pt" font-weight="normal" font-style="normal" fill="rgb(0,0,0)" transform=" rotate(0.000) scale(1.000,1.000)">${p7}</text>
<text x="185.00" y="64.00" font-family ="Arial" font-size ="21pt" font-weight="normal" font-style="normal" fill="rgb(0,0,0)" transform=" rotate(0.000) scale(1.000,1.000)">${p8}</text>
<text x="110.00" y="64.00" font-family ="Arial" font-size ="21pt" font-weight="normal" font-style="normal" fill="rgb(0,0,0)" transform=" rotate(0.000) scale(1.000,1.000)">${p9}</text>
</svg>
